<svg xmlns="http://www.w3.org/2000/svg" viewBox="0 0 200 200">
  <g fill="#0b7a6a">
    <path d="M187.84 105.37 A88.0 88.0 0 0 1 148.57 173.38 L99.67 138.00 L130.15 123.13 Z"/>
    <path d="M139.27 178.75 A88.0 88.0 0 0 1 60.73 178.75 L66.93 118.71 L95.04 137.67 Z"/>
    <path d="M51.43 173.38 A88.0 88.0 0 0 1 12.16 105.37 L67.26 80.71 L64.89 114.54 Z"/>
    <path d="M12.16 94.63 A88.0 88.0 0 0 1 51.43 26.62 L100.33 62.00 L69.85 76.87 Z"/>
    <path d="M60.73 21.25 A88.0 88.0 0 0 1 139.27 21.25 L133.07 81.29 L104.96 62.33 Z"/>
    <path d="M148.57 26.62 A88.0 88.0 0 0 1 187.84 94.63 L132.74 119.29 L135.11 85.46 Z"/>
  </g>
</svg>
