<svg xmlns="http://www.w3.org/2000/svg" viewBox="0 0 500 400" role="img" aria-label="OutFocus OF monogram">
  <title>OutFocus OF monogram (draft)</title>
  <!-- 조리개 O (확정 심볼) — 좌측 -->
  <g transform="translate(6,65) scale(1.35)" fill="#0b7a6a">
    <path d="M144.00 100.00 L137.88 179.43 A88 88 0 0 1 62.12 179.43 L122.00 138.11 Z"/>
    <path d="M122.00 138.11 L50.16 172.52 A88 88 0 0 1 12.27 106.90 L78.00 138.11 Z"/>
    <path d="M78.00 138.11 L12.27 93.10 A88 88 0 0 1 50.16 27.48 L56.00 100.00 Z"/>
    <path d="M56.00 100.00 L62.12 20.57 A88 88 0 0 1 137.88 20.57 L78.00 61.89 Z"/>
    <path d="M78.00 61.89 L149.84 27.48 A88 88 0 0 1 187.73 93.10 L122.00 61.89 Z"/>
    <path d="M122.00 61.89 L187.73 106.90 A88 88 0 0 1 149.84 172.52 L144.00 100.00 Z"/>
  </g>
  <!-- 각진 F — 좌측을 조리개 원호(반경 112, O 위로 겹침)대로 파서 O)F 겹침 밀착.
       팔 끝 수직(1자) 마감, 상·중 가로획 길이 동일(x=408)로 통일 + 축소 -->
  <g fill="#0b7a6a">
    <path d="M150 80 L408 80 L408 136 L288 136 L288 180 L408 180 L408 230 L288 230 L288 320 L150 320 A112 112 0 0 0 150 80 Z"/>
  </g>
</svg>
