<svg xmlns="http://www.w3.org/2000/svg" viewBox="0 0 1330 400" role="img" aria-label="OutFocus illustrated wordmark">
  <title>OutFocus wordmark — round monoline, teal O·F</title>
  <g transform="translate(45,43) scale(1.42)" fill="#0b7a6a">
    <path d="M144.00 100.00 L137.88 179.43 A88 88 0 0 1 62.12 179.43 L122.00 138.11 Z"/>
    <path d="M122.00 138.11 L50.16 172.52 A88 88 0 0 1 12.27 106.90 L78.00 138.11 Z"/>
    <path d="M78.00 138.11 L12.27 93.10 A88 88 0 0 1 50.16 27.48 L56.00 100.00 Z"/>
    <path d="M56.00 100.00 L62.12 20.57 A88 88 0 0 1 137.88 20.57 L78.00 61.89 Z"/>
    <path d="M78.00 61.89 L149.84 27.48 A88 88 0 0 1 187.73 93.10 L122.00 61.89 Z"/>
    <path d="M122.00 61.89 L187.73 106.90 A88 88 0 0 1 149.84 172.52 L144.00 100.00 Z"/>
  </g>
  <g fill="#1a1a1a">
    <path d="M342 167 A17 17 0 0 1 376 167 L376 225 A31 31 0 0 0 438 225 L438 167 A17 17 0 0 1 472 167 L472 225 A65 65 0 0 1 342 225 Z"/>
    <g transform="translate(-18,0)">
      <!-- t (2026-07-23 재조정, 실브라우저 렌더 검증): 크로스바 상단(중심 y167 · y150~184) 유지.
           발은 반지름 16 으로 절제 — 큰 발은 'J' 훅처럼 보여서 축소. 곡선 글자(o·c·u·s)와
           조화되는 은은한 곡선 발. 스트로크 획 34·라운드캡. -->
      <path fill="none" stroke="#1a1a1a" stroke-width="34" stroke-linecap="round" stroke-linejoin="round"
            d="M553 132 L553 257 A16 16 0 0 0 569 273"/>
      <path d="M515 150 L591 150 A17 17 0 0 1 591 184 L515 184 A17 17 0 0 1 515 150 Z"/>
    </g>
    <g transform="translate(-30,0)">
      <path fill-rule="evenodd" d="M777 220 A70 70 0 1 0 917 220 A70 70 0 1 0 777 220 Z M811 220 A36 36 0 1 0 883 220 A36 36 0 1 0 811 220 Z"/>
    </g>
    <g transform="translate(-40,0)"><path d="M1068.34 179.85 A70 70 0 1 0 1068.34 260.15 A17 17 0 0 0 1040.49 240.65 A36 36 0 1 1 1040.49 199.35 A17 17 0 0 0 1068.34 179.85 Z"/></g>
    <g transform="translate(-50,0)"><path d="M1094 167 A17 17 0 0 1 1128 167 L1128 225 A31 31 0 0 0 1190 225 L1190 167 A17 17 0 0 1 1224 167 L1224 225 A65 65 0 0 1 1094 225 Z"/></g>
  </g>
  <!-- F 자간 +25 (2026-07-22 대표님 지시): t→F 13 vs F→o 63 으로 불균등했다.
       +25 로 양쪽 최근접 거리가 38/38 균등. F 좌표 자체는 그대로 두고 translate 로만 민다. -->
  <g fill="#0b7a6a" transform="translate(25,0)">
    <path d="M586 290 L586 116 L630 72 L644 72 L644 290 Z"/>
    <path d="M644 72 L740 72 L711.1 122 L644 122 Z"/>
    <path d="M644 164 L712 164 L685.4 210 L644 210 Z"/>
  </g>
  <!-- s (2026-07-23 수직감 재조정, 실브라우저 렌더 검증): 기울임을 줄여(phi30→22) '기울어 보임'
       완화 + 터미널을 살짝 열어(aT-6) 정돈. 정원 2개(r27.5)를 M(1245,220)에서 외접(부드러운 변곡)
       시켜 세로 150~290 꽉 채움. round cap · 상하 180° 점대칭.
       ※ 전체 x높이를 채우는 s 는 로브 반지름이 ~28 로 고정되어 o(r53)만큼 곡률은 못 연다(구조적 한계). -->
  <path fill="none" stroke="#1a1a1a" stroke-width="34" stroke-linecap="round" stroke-linejoin="round"
        d="M1282.7 191.6 A27.5 27.5 0 1 0 1245 220 A27.5 27.5 0 1 1 1207.3 248.4"/>
</svg>
