<svg xmlns="http://www.w3.org/2000/svg" viewBox="0 0 420 400" role="img" aria-label="OutFocus OF monogram">
  <title>OutFocus OF monogram (draft)</title>
  <!-- 조리개 O (확정 심볼) — 좌측, 아이콘 크기로 스케일 -->
  <g transform="translate(6,65) scale(1.35)" fill="#0b7a6a">
    <path d="M144.00 100.00 L137.88 179.43 A88 88 0 0 1 62.12 179.43 L122.00 138.11 Z"/>
    <path d="M122.00 138.11 L50.16 172.52 A88 88 0 0 1 12.27 106.90 L78.00 138.11 Z"/>
    <path d="M78.00 138.11 L12.27 93.10 A88 88 0 0 1 50.16 27.48 L56.00 100.00 Z"/>
    <path d="M56.00 100.00 L62.12 20.57 A88 88 0 0 1 137.88 20.57 L78.00 61.89 Z"/>
    <path d="M78.00 61.89 L149.84 27.48 A88 88 0 0 1 187.73 93.10 L122.00 61.89 Z"/>
    <path d="M122.00 61.89 L187.73 106.90 A88 88 0 0 1 149.84 172.52 L144.00 100.00 Z"/>
  </g>
  <!-- 각진 F — 조리개 우측에 붙여 OF 결합, 조리개 톤(60° 커트·챔퍼) 일치 -->
  <g fill="#0b7a6a">
    <path d="M262 315 L262 131 L306 85 L320 85 L320 315 Z"/>
    <path d="M320 85 L384 85 L354 137 L320 137 Z"/>
    <path d="M320 181 L360 181 L332 229 L320 229 Z"/>
  </g>
</svg>
