<svg xmlns="http://www.w3.org/2000/svg" viewBox="0 0 1330 400" role="img" aria-label="OutFocus illustrated wordmark">
  <title>OutFocus wordmark — round monoline, teal O·F</title>
  <g transform="translate(45,43) scale(1.42)" fill="#0b7a6a">
    <path d="M144.00 100.00 L137.88 179.43 A88 88 0 0 1 62.12 179.43 L122.00 138.11 Z"/>
    <path d="M122.00 138.11 L50.16 172.52 A88 88 0 0 1 12.27 106.90 L78.00 138.11 Z"/>
    <path d="M78.00 138.11 L12.27 93.10 A88 88 0 0 1 50.16 27.48 L56.00 100.00 Z"/>
    <path d="M56.00 100.00 L62.12 20.57 A88 88 0 0 1 137.88 20.57 L78.00 61.89 Z"/>
    <path d="M78.00 61.89 L149.84 27.48 A88 88 0 0 1 187.73 93.10 L122.00 61.89 Z"/>
    <path d="M122.00 61.89 L187.73 106.90 A88 88 0 0 1 149.84 172.52 L144.00 100.00 Z"/>
  </g>
  <g fill="#1a1a1a">
    <path d="M342 167 A17 17 0 0 1 376 167 L376 225 A31 31 0 0 0 438 225 L438 167 A17 17 0 0 1 472 167 L472 225 A65 65 0 0 1 342 225 Z"/>
    <g transform="translate(-18,0)">
      <!-- t (2026-07-23 대표님 지시: 크로스바 상단 + 발 확대): 크로스바가 줄기 중앙에 있으면 '+'
           처럼 읽혀 x높이선(중심 y167 · y150~184)으로 되올림. 줄기 밑동은 반지름 22 원호로
           오른쪽 곡선 발(u 볼과 호응, 스트로크 획 34·라운드캡) → 곡선 글자(o·c·u·s)와 통일. -->
      <path fill="none" stroke="#1a1a1a" stroke-width="34" stroke-linecap="round" stroke-linejoin="round"
            d="M553 132 L553 251 A22 22 0 0 0 575 273"/>
      <path d="M515 150 L591 150 A17 17 0 0 1 591 184 L515 184 A17 17 0 0 1 515 150 Z"/>
    </g>
    <g transform="translate(-30,0)">
      <path fill-rule="evenodd" d="M777 220 A70 70 0 1 0 917 220 A70 70 0 1 0 777 220 Z M811 220 A36 36 0 1 0 883 220 A36 36 0 1 0 811 220 Z"/>
    </g>
    <g transform="translate(-40,0)"><path d="M1068.34 179.85 A70 70 0 1 0 1068.34 260.15 A17 17 0 0 0 1040.49 240.65 A36 36 0 1 1 1040.49 199.35 A17 17 0 0 0 1068.34 179.85 Z"/></g>
    <g transform="translate(-50,0)"><path d="M1094 167 A17 17 0 0 1 1128 167 L1128 225 A31 31 0 0 0 1190 225 L1190 167 A17 17 0 0 1 1224 167 L1224 225 A65 65 0 0 1 1094 225 Z"/></g>
  </g>
  <!-- F 자간 +25 (2026-07-22 대표님 지시): t→F 13 vs F→o 63 으로 불균등했다.
       +25 로 양쪽 최근접 거리가 38/38 균등. F 좌표 자체는 그대로 두고 translate 로만 민다. -->
  <g fill="#0b7a6a" transform="translate(25,0)">
    <path d="M586 290 L586 116 L630 72 L644 72 L644 290 Z"/>
    <path d="M644 72 L740 72 L711.1 122 L644 122 Z"/>
    <path d="M644 164 L712 164 L685.4 210 L644 210 Z"/>
  </g>
  <!-- s (2026-07-22 폭·곡률 균형 재작도): 좁은 r26.5(폭 0.6×o)는 카운터가 좁아 어색했다.
       정원 2개(r28.4)를 M(1245,220)에서 외접(부드러운 변곡)시켜 재작도 — 세로 150~290 꽉 채움,
       폭 119 ≈ o(140)의 0.85(폰트 관례), 대각 허리, 카운터를 열어 c의 벌어진 입과 호응, round cap.
       상단 우측·하단 좌측 터미널 180° 점대칭.
       ※ 전체 x높이를 채우는 s 는 로브 반지름이 ~28 로 고정되어 o(r53)만큼 곡률을 못 연다(한계). -->
  <path fill="none" stroke="#1a1a1a" stroke-width="34" stroke-linecap="round" stroke-linejoin="round"
        d="M1287.6 195.4 A28.4 28.4 0 1 0 1245 220 A28.4 28.4 0 1 1 1202.4 244.6"/>
</svg>
