<svg xmlns="http://www.w3.org/2000/svg" viewBox="0 0 440 400" role="img" aria-label="OutFocus OF monogram">
  <title>OutFocus OF monogram (draft)</title>
  <g transform="translate(6,65) scale(1.35)" fill="#0b7a6a">
    <path d="M144.00 100.00 L137.88 179.43 A88 88 0 0 1 62.12 179.43 L122.00 138.11 Z"/>
    <path d="M122.00 138.11 L50.16 172.52 A88 88 0 0 1 12.27 106.90 L78.00 138.11 Z"/>
    <path d="M78.00 138.11 L12.27 93.10 A88 88 0 0 1 50.16 27.48 L56.00 100.00 Z"/>
    <path d="M56.00 100.00 L62.12 20.57 A88 88 0 0 1 137.88 20.57 L78.00 61.89 Z"/>
    <path d="M78.00 61.89 L149.84 27.48 A88 88 0 0 1 187.73 93.10 L122.00 61.89 Z"/>
    <path d="M122.00 61.89 L187.73 106.90 A88 88 0 0 1 149.84 172.52 L144.00 100.00 Z"/>
  </g>
  <!-- F — 줄기: 조리개 동심 얇은 ')' 밴드(안/바깥 원호, 등두께 34, 상하 수평 캡). 팔: 같은 두께 -->
  <g fill="#0b7a6a">
    <path d="M172.2 80.0 L189.8 86.0 L201.9 92.0 L211.5 98.0 L219.5 104.0 L226.3 110.0 L232.2 116.0 L237.4 122.0 L242.0 128.0 L246.0 134.0 L249.5 140.0 L252.6 146.0 L255.3 152.0 L257.7 158.0 L259.7 164.0 L261.3 170.0 L262.7 176.0 L263.7 182.0 L264.4 188.0 L264.9 194.0 L265.0 200.0 L264.9 206.0 L264.4 212.0 L263.7 218.0 L262.7 224.0 L261.3 230.0 L259.7 236.0 L257.7 242.0 L255.3 248.0 L252.6 254.0 L249.5 260.0 L246.0 266.0 L242.0 272.0 L237.4 278.0 L232.2 284.0 L226.3 290.0 L219.5 296.0 L211.5 302.0 L201.9 308.0 L189.8 314.0 L172.2 320.0 L243.8 320.0 L250.4 314.0 L256.3 308.0 L261.7 302.0 L266.5 296.0 L270.9 290.0 L274.8 284.0 L278.4 278.0 L281.6 272.0 L284.6 266.0 L287.2 260.0 L289.5 254.0 L291.5 248.0 L293.3 242.0 L294.8 236.0 L296.1 230.0 L297.2 224.0 L298.0 218.0 L298.5 212.0 L298.9 206.0 L299.0 200.0 L298.9 194.0 L298.5 188.0 L298.0 182.0 L297.2 176.0 L296.1 170.0 L294.8 164.0 L293.3 158.0 L291.5 152.0 L289.5 146.0 L287.2 140.0 L284.6 134.0 L281.6 128.0 L278.4 122.0 L274.8 116.0 L270.9 110.0 L266.5 104.0 L261.7 98.0 L256.3 92.0 L250.4 86.0 L243.8 80.0 Z"/>
    <path d="M235.0 80.0 L400.0 80.0 L400.0 114.0 L235.0 114.0 Z"/>
    <path d="M250.0 176.0 L400.0 176.0 L400.0 210.0 L250.0 210.0 Z"/>
  </g>
</svg>
