<svg xmlns="http://www.w3.org/2000/svg" viewBox="0 0 200 200">
  <g fill="#141414">
    <path d="M144.00 100.00 L158.31 165.91 A88.0 88.0 0 0 1 85.48 186.79 L122.00 138.11 Z"/>
    <path d="M122.00 138.11 L72.08 183.45 A88.0 88.0 0 0 1 17.57 130.82 L78.00 138.11 Z"/>
    <path d="M78.00 138.11 L13.77 117.54 A88.0 88.0 0 0 1 32.10 44.03 L56.00 100.00 Z"/>
    <path d="M56.00 100.00 L41.69 34.09 A88.0 88.0 0 0 1 114.52 13.21 L78.00 61.89 Z"/>
    <path d="M78.00 61.89 L127.92 16.55 A88.0 88.0 0 0 1 182.43 69.18 L122.00 61.89 Z"/>
    <path d="M122.00 61.89 L186.23 82.46 A88.0 88.0 0 0 1 167.90 155.97 L144.00 100.00 Z"/>
  </g>
</svg>
