<svg xmlns="http://www.w3.org/2000/svg" viewBox="0 0 1447 400" role="img" aria-label="OutFocus wordmark">
  <title>OutFocus wordmark — 조리개 O + teal F + Poppins Bold(u=Outfit)</title>
  <!-- 2026-07-23: F 를 단일 패스로 병합 — 줄기와 가로획이 x=644 에서 맞닿기만 해서
       각 도형의 안티에일리어싱이 겹쳐 흰 seam(빈틈)이 보이던 문제 해결.
       좌상단 커팅 없음(직각). 상단획 765.2(중간획 끝 커팅선의 연장선상). ocus o pen 740.
       소문자=Poppins Bold(u 두 개만 Outfit Bold), 둘 다 SIL OFL, 아웃라인 임베드. -->
  <g transform="translate(45,43) scale(1.42)" fill="#0b7a6a">
    <path d="M144.00 100.00 L137.88 179.43 A88 88 0 0 1 62.12 179.43 L122.00 138.11 Z"/>
    <path d="M122.00 138.11 L50.16 172.52 A88 88 0 0 1 12.27 106.90 L78.00 138.11 Z"/>
    <path d="M78.00 138.11 L12.27 93.10 A88 88 0 0 1 50.16 27.48 L56.00 100.00 Z"/>
    <path d="M56.00 100.00 L62.12 20.57 A88 88 0 0 1 137.88 20.57 L78.00 61.89 Z"/>
    <path d="M78.00 61.89 L149.84 27.48 A88 88 0 0 1 187.73 93.10 L122.00 61.89 Z"/>
    <path d="M122.00 61.89 L187.73 106.90 A88 88 0 0 1 149.84 172.52 L144.00 100.00 Z"/>
  </g>
  <g fill="#1a1a1a"><g transform="translate(314.60,290) scale(0.31893,-0.31893)"><path d="M269.5 -11Q203.19784172661872 -11 151.59892086330936 16.5Q100 44 70.75 92.67303102625299Q41.5 141.34606205250597 41.5 204.39251411607194V486H194.5V206Q194.5 180.92285714285714 203.4375 162.8042857142857Q212.375 144.68571428571428 229.4278846153846 134.84285714285716Q246.48076923076923 125 269.66379310344826 125Q304 125 324.0 146.53Q344 168.06 344 206V486H497V204.5Q497 140.5 468.0 92.0Q439 43.5 387.7841726618705 16.25Q336.568345323741 -11 269.5 -11Z"/></g><g transform="translate(486.50,290) scale(0.27778,-0.27778)"><path d="M373 145V0H286Q193 0 141.0 45.5Q89 91 89 194V416H21V558H89V694H260V558H372V416H260V192Q260 167 272.0 156.0Q284 145 312 145Z"/></g></g>
  <g fill="#0b7a6a" transform="translate(19.95,0)"><path d="M586 290 L586 72 L765.2 72 L736.3 122 L644 122 L644 164 L712 164 L685.4 210 L644 210 L644 290 Z"/></g>
  <g fill="#1a1a1a"><g transform="translate(740.00,290) scale(0.27778,-0.27778)"><path d="M28 279Q28 365 66.0 430.5Q104 496 170.0 531.0Q236 566 318 566Q400 566 466.0 531.0Q532 496 570.0 430.5Q608 365 608 279Q608 193 569.5 127.5Q531 62 464.5 27.0Q398 -8 316 -8Q234 -8 168.5 27.0Q103 62 65.5 127.0Q28 192 28 279ZM434 279Q434 346 400.5 382.0Q367 418 318 418Q268 418 235.0 382.5Q202 347 202 279Q202 212 234.5 176.0Q267 140 316 140Q365 140 399.5 176.0Q434 212 434 279Z"/></g><g transform="translate(916.94,290) scale(0.27778,-0.27778)"><path d="M308 566Q413 566 483.5 511.0Q554 456 576 356H394Q371 420 305 420Q258 420 230.0 383.5Q202 347 202 279Q202 211 230.0 174.5Q258 138 305 138Q371 138 394 202H576Q554 104 483.0 48.0Q412 -8 308 -8Q226 -8 162.5 27.0Q99 62 63.5 127.0Q28 192 28 279Q28 366 63.5 431.0Q99 496 162.5 531.0Q226 566 308 566Z"/></g><g transform="translate(1085.00,290) scale(0.31893,-0.31893)"><path d="M269.5 -11Q203.19784172661872 -11 151.59892086330936 16.5Q100 44 70.75 92.67303102625299Q41.5 141.34606205250597 41.5 204.39251411607194V486H194.5V206Q194.5 180.92285714285714 203.4375 162.8042857142857Q212.375 144.68571428571428 229.4278846153846 134.84285714285716Q246.48076923076923 125 269.66379310344826 125Q304 125 324.0 146.53Q344 168.06 344 206V486H497V204.5Q497 140.5 468.0 92.0Q439 43.5 387.7841726618705 16.25Q336.568345323741 -11 269.5 -11Z"/></g><g transform="translate(1256.90,290) scale(0.27778,-0.27778)"><path d="M32 183H201Q204 154 228.0 136.0Q252 118 287 118Q319 118 336.5 130.5Q354 143 354 163Q354 187 329.0 198.5Q304 210 248 224Q188 238 148.0 253.5Q108 269 79.0 302.5Q50 336 50 393Q50 441 76.5 480.5Q103 520 154.5 543.0Q206 566 277 566Q382 566 442.5 514.0Q503 462 512 376H354Q350 405 328.5 422.0Q307 439 272 439Q242 439 226.0 427.5Q210 416 210 396Q210 372 235.5 360.0Q261 348 315 336Q377 320 416.0 304.5Q455 289 484.5 254.5Q514 220 515 162Q515 113 487.5 74.5Q460 36 408.5 14.0Q357 -8 289 -8Q216 -8 159.0 17.0Q102 42 69.0 85.5Q36 129 32 183Z"/></g></g>
</svg>
