<svg xmlns="http://www.w3.org/2000/svg" viewBox="0 0 1330 400" role="img" aria-label="OutFocus illustrated wordmark">
  <title>OutFocus wordmark — round monoline, teal O·F</title>
  <g transform="translate(45,43) scale(1.42)" fill="#0b7a6a">
    <path d="M144.00 100.00 L137.88 179.43 A88 88 0 0 1 62.12 179.43 L122.00 138.11 Z"/>
    <path d="M122.00 138.11 L50.16 172.52 A88 88 0 0 1 12.27 106.90 L78.00 138.11 Z"/>
    <path d="M78.00 138.11 L12.27 93.10 A88 88 0 0 1 50.16 27.48 L56.00 100.00 Z"/>
    <path d="M56.00 100.00 L62.12 20.57 A88 88 0 0 1 137.88 20.57 L78.00 61.89 Z"/>
    <path d="M78.00 61.89 L149.84 27.48 A88 88 0 0 1 187.73 93.10 L122.00 61.89 Z"/>
    <path d="M122.00 61.89 L187.73 106.90 A88 88 0 0 1 149.84 172.52 L144.00 100.00 Z"/>
  </g>
  <g fill="#1a1a1a">
    <path d="M342 167 A17 17 0 0 1 376 167 L376 225 A31 31 0 0 0 438 225 L438 167 A17 17 0 0 1 472 167 L472 225 A65 65 0 0 1 342 225 Z"/>
    <g transform="translate(-18,0)">
      <!-- t (2026-07-23 정상서체 재작도): 커스텀 기하(발·+크로스바)가 '이상하다' 반복 지적 →
           Century Gothic(원형 o 계열 지오메트릭)의 t 골격을 모노라인(획34·라운드캡)으로 재현.
           직선 줄기(y120 어센더~273 베이스라인) + 크로스바(중심 y161), 발 없음 = 정상 t. -->
      <path fill="none" stroke="#1a1a1a" stroke-width="34" stroke-linecap="round" stroke-linejoin="round" d="M553 120 L553 273"/>
      <path fill="none" stroke="#1a1a1a" stroke-width="34" stroke-linecap="round" stroke-linejoin="round" d="M520 161 L590 161"/>
    </g>
    <g transform="translate(-30,0)">
      <path fill-rule="evenodd" d="M777 220 A70 70 0 1 0 917 220 A70 70 0 1 0 777 220 Z M811 220 A36 36 0 1 0 883 220 A36 36 0 1 0 811 220 Z"/>
    </g>
    <g transform="translate(-40,0)"><path d="M1068.34 179.85 A70 70 0 1 0 1068.34 260.15 A17 17 0 0 0 1040.49 240.65 A36 36 0 1 1 1040.49 199.35 A17 17 0 0 0 1068.34 179.85 Z"/></g>
    <g transform="translate(-50,0)"><path d="M1094 167 A17 17 0 0 1 1128 167 L1128 225 A31 31 0 0 0 1190 225 L1190 167 A17 17 0 0 1 1224 167 L1224 225 A65 65 0 0 1 1094 225 Z"/></g>
  </g>
  <!-- F 자간 +25 (2026-07-22 대표님 지시): t→F 13 vs F→o 63 으로 불균등했다.
       +25 로 양쪽 최근접 거리가 38/38 균등. F 좌표 자체는 그대로 두고 translate 로만 민다. -->
  <g fill="#0b7a6a" transform="translate(25,0)">
    <path d="M586 290 L586 116 L630 72 L644 72 L644 290 Z"/>
    <path d="M644 72 L740 72 L711.1 122 L644 122 Z"/>
    <path d="M644 164 L712 164 L685.4 210 L644 210 Z"/>
  </g>
  <!-- s (2026-07-23 정상서체 재작도): 커스텀 기하 s(정원 2개)가 '이상하다·일부러 다르게' 반복
       지적 → 접근 전환. Century Gothic(원형 o 와 매칭되는 지오메트릭 산세리프)의 실제 s 글자를
       스켈레톤(Zhang-Suen 세선화)으로 중심선 추출 → 모노라인(획34·라운드캡)으로 스트로크 →
       베지어 평활화. 열린 카운터·자연스러운 터미널의 '정상 s'. (실브라우저 렌더 검증) -->
  <path fill="none" stroke="#1a1a1a" stroke-width="34" stroke-linecap="round" stroke-linejoin="round"
        d="M1276.46 168.44 C1272.89 166.94 1261.69 160.80 1255.08 159.40 C1248.46 158.00 1242.12 158.28 1236.80 160.03 C1231.47 161.78 1226.16 165.62 1223.12 169.89 C1220.08 174.15 1218.94 181.05 1218.56 185.63 C1218.19 190.20 1219.33 193.87 1220.87 197.35 C1222.42 200.83 1220.73 201.26 1227.80 206.49 C1234.87 211.72 1255.80 223.46 1263.29 228.73 C1270.78 234.01 1270.47 234.00 1272.74 238.13 C1275.00 242.27 1276.89 248.30 1276.90 253.55 C1276.91 258.79 1275.56 265.01 1272.81 269.61 C1270.06 274.20 1265.28 278.59 1260.40 281.11 C1255.52 283.62 1248.32 284.38 1243.54 284.68 C1238.76 284.99 1235.34 283.97 1231.70 282.93 C1228.05 281.89 1224.31 279.97 1221.65 278.45 C1218.99 276.93 1216.80 275.80 1215.73 273.82 C1214.67 271.83 1215.35 267.77 1215.28 266.56"/>
</svg>
