<svg xmlns="http://www.w3.org/2000/svg" viewBox="0 0 440 400" role="img" aria-label="OutFocus OF monogram">
  <title>OutFocus OF monogram (draft)</title>
  <g transform="translate(6,65) scale(1.35)" fill="#0b7a6a">
    <path d="M144.00 100.00 L137.88 179.43 A88 88 0 0 1 62.12 179.43 L122.00 138.11 Z"/>
    <path d="M122.00 138.11 L50.16 172.52 A88 88 0 0 1 12.27 106.90 L78.00 138.11 Z"/>
    <path d="M78.00 138.11 L12.27 93.10 A88 88 0 0 1 50.16 27.48 L56.00 100.00 Z"/>
    <path d="M56.00 100.00 L62.12 20.57 A88 88 0 0 1 137.88 20.57 L78.00 61.89 Z"/>
    <path d="M78.00 61.89 L149.84 27.48 A88 88 0 0 1 187.73 93.10 L122.00 61.89 Z"/>
    <path d="M122.00 61.89 L187.73 106.90 A88 88 0 0 1 149.84 172.52 L144.00 100.00 Z"/>
  </g>
  <!-- F — 줄기: 조리개 동심 ')' 밴드(등두께 46). 중간 팔은 정중앙(y=200). 두께 통일 -->
  <g fill="#0b7a6a">
    <path d="M172.2 80.0 L188.5 85.5 L200.0 90.9 L209.1 96.4 L216.7 101.8 L223.3 107.3 L229.1 112.7 L234.2 118.2 L238.7 123.6 L242.7 129.1 L246.3 134.5 L249.5 140.0 L252.4 145.5 L254.9 150.9 L257.1 156.4 L259.0 161.8 L260.6 167.3 L262.0 172.7 L263.1 178.2 L263.9 183.6 L264.5 189.1 L264.9 194.5 L265.0 200.0 L264.9 205.5 L264.5 210.9 L263.9 216.4 L263.1 221.8 L262.0 227.3 L260.6 232.7 L259.0 238.2 L257.1 243.6 L254.9 249.1 L252.4 254.5 L249.5 260.0 L246.3 265.5 L242.7 270.9 L238.7 276.4 L234.2 281.8 L229.1 287.3 L223.3 292.7 L216.7 298.2 L209.1 303.6 L200.0 309.1 L188.5 314.5 L172.2 320.0 L261.4 320.0 L266.6 314.5 L271.4 309.1 L275.8 303.6 L279.8 298.2 L283.5 292.7 L286.9 287.3 L290.0 281.8 L292.9 276.4 L295.5 270.9 L297.9 265.5 L300.1 260.0 L302.0 254.5 L303.8 249.1 L305.3 243.6 L306.7 238.2 L307.8 232.7 L308.8 227.3 L309.6 221.8 L310.2 216.4 L310.6 210.9 L310.9 205.5 L311.0 200.0 L310.9 194.5 L310.6 189.1 L310.2 183.6 L309.6 178.2 L308.8 172.7 L307.8 167.3 L306.7 161.8 L305.3 156.4 L303.8 150.9 L302.0 145.5 L300.1 140.0 L297.9 134.5 L295.5 129.1 L292.9 123.6 L290.0 118.2 L286.9 112.7 L283.5 107.3 L279.8 101.8 L275.8 96.4 L271.4 90.9 L266.6 85.5 L261.4 80.0 Z"/>
    <path d="M249.5 80.0 L400.0 80.0 L400.0 126.0 L249.5 126.0 Z"/>
    <path d="M271.8 177.0 L400.0 177.0 L400.0 223.0 L271.8 223.0 Z"/>
  </g>
</svg>
