<svg xmlns="http://www.w3.org/2000/svg" viewBox="0 0 200 200">
  <g fill="#0b7a6a">
    <path d="M144.00 100.00 L137.88 179.43 A88.0 88.0 0 0 1 62.12 179.43 L122.00 138.11 Z"/>
    <path d="M122.00 138.11 L50.16 172.52 A88.0 88.0 0 0 1 12.27 106.90 L78.00 138.11 Z"/>
    <path d="M78.00 138.11 L12.27 93.10 A88.0 88.0 0 0 1 50.16 27.48 L56.00 100.00 Z"/>
    <path d="M56.00 100.00 L62.12 20.57 A88.0 88.0 0 0 1 137.88 20.57 L78.00 61.89 Z"/>
    <path d="M78.00 61.89 L149.84 27.48 A88.0 88.0 0 0 1 187.73 93.10 L122.00 61.89 Z"/>
    <path d="M122.00 61.89 L187.73 106.90 A88.0 88.0 0 0 1 149.84 172.52 L144.00 100.00 Z"/>
  </g>
</svg>
