<svg xmlns="http://www.w3.org/2000/svg" viewBox="0 0 200 200">
  <g fill="#0b7a6a">
    <path d="M144.00 100.00 L132.25 181.88 A88.0 88.0 0 0 1 56.67 176.59 L122.00 138.11 Z"/>
    <path d="M122.00 138.11 L45.22 168.87 A88.0 88.0 0 0 1 12.00 100.77 L78.00 138.11 Z"/>
    <path d="M78.00 138.11 L12.97 86.99 A88.0 88.0 0 0 1 55.34 24.18 L56.00 100.00 Z"/>
    <path d="M56.00 100.00 L67.75 18.12 A88.0 88.0 0 0 1 143.33 23.41 L78.00 61.89 Z"/>
    <path d="M78.00 61.89 L154.78 31.13 A88.0 88.0 0 0 1 188.00 99.23 L122.00 61.89 Z"/>
    <path d="M122.00 61.89 L187.03 113.01 A88.0 88.0 0 0 1 144.66 175.82 L144.00 100.00 Z"/>
  </g>
</svg>
