<svg xmlns="http://www.w3.org/2000/svg" viewBox="0 0 500 400" role="img" aria-label="OutFocus OF monogram">
  <title>OutFocus OF monogram (draft)</title>
  <!-- 조리개 O (확정 심볼) — 좌측 -->
  <g transform="translate(6,65) scale(1.35)" fill="#0b7a6a">
    <path d="M144.00 100.00 L137.88 179.43 A88 88 0 0 1 62.12 179.43 L122.00 138.11 Z"/>
    <path d="M122.00 138.11 L50.16 172.52 A88 88 0 0 1 12.27 106.90 L78.00 138.11 Z"/>
    <path d="M78.00 138.11 L12.27 93.10 A88 88 0 0 1 50.16 27.48 L56.00 100.00 Z"/>
    <path d="M56.00 100.00 L62.12 20.57 A88 88 0 0 1 137.88 20.57 L78.00 61.89 Z"/>
    <path d="M78.00 61.89 L149.84 27.48 A88 88 0 0 1 187.73 93.10 L122.00 61.89 Z"/>
    <path d="M122.00 61.89 L187.73 106.90 A88 88 0 0 1 149.84 172.52 L144.00 100.00 Z"/>
  </g>
  <!-- 각진 F — 광폭판: 기둥 80, 상단 팔 470까지·중단 435까지. 높이 78~322, 60° 커트·챔퍼 유지 -->
  <g fill="#0b7a6a">
    <path d="M262 322 L262 126 L310 78 L342 78 L342 322 Z"/>
    <path d="M342 78 L470 78 L437.7 134 L342 134 Z"/>
    <path d="M342 180 L435 180 L406.1 230 L342 230 Z"/>
  </g>
</svg>
