<svg xmlns="http://www.w3.org/2000/svg" viewBox="0 0 500 400" role="img" aria-label="OutFocus OF monogram">
  <title>OutFocus OF monogram (draft)</title>
  <!-- 조리개 O (확정 심볼) — 좌측 -->
  <g transform="translate(6,65) scale(1.35)" fill="#0b7a6a">
    <path d="M144.00 100.00 L137.88 179.43 A88 88 0 0 1 62.12 179.43 L122.00 138.11 Z"/>
    <path d="M122.00 138.11 L50.16 172.52 A88 88 0 0 1 12.27 106.90 L78.00 138.11 Z"/>
    <path d="M78.00 138.11 L12.27 93.10 A88 88 0 0 1 50.16 27.48 L56.00 100.00 Z"/>
    <path d="M56.00 100.00 L62.12 20.57 A88 88 0 0 1 137.88 20.57 L78.00 61.89 Z"/>
    <path d="M78.00 61.89 L149.84 27.48 A88 88 0 0 1 187.73 93.10 L122.00 61.89 Z"/>
    <path d="M122.00 61.89 L187.73 106.90 A88 88 0 0 1 149.84 172.52 L144.00 100.00 Z"/>
  </g>
  <!-- 각진 F — 좌측을 조리개 원호(반경 122, O 외곽+3 간격)대로 파서 O)F 초밀착.
       장식: 상단 팔 끝 + 기둥 하단에 조리개 날과 같은 60° 분리 홈(8px) — 날 조각 3개 구성 -->
  <g fill="#0b7a6a">
    <path d="M163 80 L400 80 L367.7 136 L288 136 L288 180 L435 180 L406.1 230 L288 230 L288 240 L241.8 320 L163 320 A122 122 0 0 0 163 80 Z"/>
    <path d="M409 80 L470 80 L437.7 136 L376.7 136 Z"/>
    <path d="M288 256 L288 320 L251 320 Z"/>
  </g>
</svg>
