<svg xmlns="http://www.w3.org/2000/svg" viewBox="0 0 500 400" role="img" aria-label="OutFocus OF monogram">
  <title>OutFocus OF monogram (draft)</title>
  <!-- 조리개 O (확정 심볼) — 좌측 -->
  <g transform="translate(6,65) scale(1.35)" fill="#0b7a6a">
    <path d="M144.00 100.00 L137.88 179.43 A88 88 0 0 1 62.12 179.43 L122.00 138.11 Z"/>
    <path d="M122.00 138.11 L50.16 172.52 A88 88 0 0 1 12.27 106.90 L78.00 138.11 Z"/>
    <path d="M78.00 138.11 L12.27 93.10 A88 88 0 0 1 50.16 27.48 L56.00 100.00 Z"/>
    <path d="M56.00 100.00 L62.12 20.57 A88 88 0 0 1 137.88 20.57 L78.00 61.89 Z"/>
    <path d="M78.00 61.89 L149.84 27.48 A88 88 0 0 1 187.73 93.10 L122.00 61.89 Z"/>
    <path d="M122.00 61.89 L187.73 106.90 A88 88 0 0 1 149.84 172.52 L144.00 100.00 Z"/>
  </g>
  <!-- 각진 F — 좌측을 조리개 원호(반경 127, O 외곽+8 간격)대로 파서 O)F 로 밀착.
       기둥 슬림화(중앙 두께 ~50)·O쪽으로 접근, 상단 팔 470·중단 435, 60° 커트 유지 -->
  <g fill="#0b7a6a">
    <path d="M176 78 L470 78 L437.7 134 L318 134 L318 180 L435 180 L406.1 230 L318 230 L318 322 L176 322 A127 127 0 0 0 176 78 Z"/>
  </g>
</svg>
