<svg xmlns="http://www.w3.org/2000/svg" viewBox="0 0 1400 400" role="img" aria-label="OutFocus">
  <title>OutFocus wordmark - ink stamp</title>
  <!-- Aperture O: locked trademark symbol, position/scale only (dia ~250, center 150,185) -->
  <g transform="translate(7.95 42.95) scale(1.4205)">
    <g id="aperture-o" fill="#0b7a6a">
      <path d="M144.00 100.00 L137.88 179.43 A88 88 0 0 1 62.12 179.43 L122.00 138.11 Z"/>
      <path d="M122.00 138.11 L50.16 172.52 A88 88 0 0 1 12.27 106.90 L78.00 138.11 Z"/>
      <path d="M78.00 138.11 L12.27 93.10 A88 88 0 0 1 50.16 27.48 L56.00 100.00 Z"/>
      <path d="M56.00 100.00 L62.12 20.57 A88 88 0 0 1 137.88 20.57 L78.00 61.89 Z"/>
      <path d="M78.00 61.89 L149.84 27.48 A88 88 0 0 1 187.73 93.10 L122.00 61.89 Z"/>
      <path d="M122.00 61.89 L187.73 106.90 A88 88 0 0 1 149.84 172.52 L144.00 100.00 Z"/>
    </g>
  </g>
  <!-- Custom stamp lettering: utFocus (pure paths, ink black) -->
  <g fill="#1a1a1a">
    <!-- u : two stems + bottom bowl, outer-side flare serifs, ink squish on left edge -->
    <path d="M 298,153 Q 298,150 301,150 L 358,150 Q 361,150 361,153 L 361,212 Q 361,238 378,238 Q 395,238 395,212 L 395,153 Q 395,150 398,150 L 455,150 Q 458,150 458,153 Q 457,162 453,169 L 453,238 Q 453,290 400,290 L 356,290 Q 303,290 303,238 L 303,206 Q 300.6,192 303,178 L 303,169 Q 302,158 298,153 Z"/>
    <!-- t : ascender stem + crossbar + flared stamp foot, ink squish on right edge -->
    <path d="M 489,116 Q 489,112 493,112 L 543,112 Q 547,112 547,116 L 547,150 L 563,150 Q 567,150 567,154 L 567,192 Q 567,196 563,196 L 547,196 L 547,222 Q 549.4,238 547,254 L 547,272 L 554,287 Q 555,290 551,290 L 485,290 Q 481,290 482,287 L 489,272 L 489,196 L 475,196 Q 471,196 471,192 L 471,154 Q 471,150 475,150 L 489,150 Z"/>
    <!-- F : stem + two arms + flared stamp foot, ink bulge on top edge and right stem edge -->
    <path d="M 589,100 L 660,100 Q 674,97.7 688,100 L 711,100 Q 717,100 717,106 L 717,140 Q 717,146 711,146 L 643,146 L 643,182 L 691,182 Q 697,182 697,188 L 697,220 Q 697,226 691,226 L 643,226 L 643,240 Q 645.4,255 643,269 L 643,272 L 650,287 Q 651,290 647,290 L 581,290 Q 577,290 578,287 L 585,272 L 585,104 Q 585,100 589,100 Z"/>
    <!-- o : soft squircle ring, punched square counter, ink bulge right edge + nick on bottom -->
    <path fill-rule="evenodd" d="M 790,147 L 834,147 C 872,147 889,168 889,206 L 889,210 Q 891.4,222 889,234 C 889,272 872,293 834,293 L 820,293 Q 810,290.8 800,293 L 790,293 C 752,293 735,272 735,234 L 735,206 C 735,168 752,147 790,147 Z M 795,195 L 829,195 C 836,195 837,198 837,204 L 837,236 C 837,242 836,245 829,245 L 795,245 C 788,245 787,242 787,236 L 787,204 C 787,198 788,195 795,195 Z"/>
    <!-- c : squircle with right mouth, thick terminals, ink bulges on top and left edges -->
    <path d="M 1049,155 Q 1049,147 1041,147 L 1010,147 Q 998,144.6 986,147 L 975,147 C 940,147 907,172 907,212 Q 904.8,220 907,228 C 907,270 940,293 975,293 L 1041,293 Q 1049,293 1049,285 L 1049,251 Q 1049,245 1043,245 L 967,245 Q 959,245 959,237 L 959,203 Q 959,195 967,195 L 1043,195 Q 1049,195 1049,189 Z"/>
    <!-- u (second) : same construction shifted +764 -->
    <path d="M 1062,153 Q 1062,150 1065,150 L 1122,150 Q 1125,150 1125,153 L 1125,212 Q 1125,238 1142,238 Q 1159,238 1159,212 L 1159,153 Q 1159,150 1162,150 L 1219,150 Q 1222,150 1222,153 Q 1221,162 1217,169 L 1217,238 Q 1217,290 1164,290 L 1120,290 Q 1067,290 1067,238 L 1067,206 Q 1064.6,192 1067,178 L 1067,169 Q 1066,158 1062,153 Z"/>
    <!-- s : blocky seal-script S (stamp/woodcut), rounded terminals, ink bulge right + nick bottom -->
    <path d="M 1251,147 L 1347,147 Q 1361,147 1361,161 L 1361,170 Q 1361,184 1347,184 L 1297,184 Q 1289,184 1289,192 L 1289,194 Q 1289,202 1297,202 L 1347,202 Q 1361,202 1361,216 L 1361,234 Q 1363.4,248 1361,262 L 1361,277 Q 1361,293 1345,293 L 1291,293 Q 1281,290.6 1271,293 L 1251,293 Q 1235,293 1235,277 L 1235,271 Q 1235,257 1249,257 L 1299,257 Q 1307,257 1307,249 L 1307,247 Q 1307,239 1299,239 L 1249,239 Q 1235,239 1235,225 L 1235,161 Q 1235,147 1251,147 Z"/>
  </g>
</svg>
