<svg xmlns="http://www.w3.org/2000/svg" viewBox="0 0 1400 400" width="1400" height="400">
<title>OutFocus wordmark — script flow</title>
<g transform="translate(73,43) scale(1.42)">
<g id="aperture-o" fill="#0b7a6a">
<path d="M144.00 100.00 L137.88 179.43 A88 88 0 0 1 62.12 179.43 L122.00 138.11 Z"/>
<path d="M122.00 138.11 L50.16 172.52 A88 88 0 0 1 12.27 106.90 L78.00 138.11 Z"/>
<path d="M78.00 138.11 L12.27 93.10 A88 88 0 0 1 50.16 27.48 L56.00 100.00 Z"/>
<path d="M56.00 100.00 L62.12 20.57 A88 88 0 0 1 137.88 20.57 L78.00 61.89 Z"/>
<path d="M78.00 61.89 L149.84 27.48 A88 88 0 0 1 187.73 93.10 L122.00 61.89 Z"/>
<path d="M122.00 61.89 L187.73 106.90 A88 88 0 0 1 149.84 172.52 L144.00 100.00 Z"/>
</g>
</g>
<path id="lt-u1" fill="#1a1a1a" d="M 365.9 205.9 C 366.4 203.8 370.4 201.0 373.0 197.9 C 375.6 194.8 379.0 190.9 381.4 187.2 C 383.9 183.6 385.7 179.6 387.7 175.8 C 389.8 172.0 391.7 167.8 393.6 164.3 C 395.6 160.9 397.9 157.6 399.6 155.1 C 401.3 152.5 401.1 148.3 403.8 148.9 C 406.6 149.6 415.0 156.5 416.2 159.1 C 417.4 161.6 413.1 162.1 411.2 164.2 C 409.2 166.3 406.7 168.7 404.4 171.7 C 402.0 174.6 399.7 178.2 397.0 181.7 C 394.4 185.2 391.7 189.2 388.6 192.8 C 385.4 196.3 381.3 200.0 378.3 202.9 C 375.2 205.8 372.2 209.6 370.1 210.1 C 368.1 210.6 365.4 207.9 365.9 205.9 Z M 420.8 152.1 C 424.9 154.0 421.5 156.6 421.9 159.7 C 422.3 162.8 422.9 166.7 423.2 170.6 C 423.6 174.5 423.9 178.5 423.8 183.0 C 423.7 187.4 423.2 192.3 422.8 197.3 C 422.3 202.4 421.5 208.2 420.9 213.3 C 420.2 218.3 419.6 223.4 418.8 227.6 C 418.1 231.8 417.3 235.5 416.5 238.6 C 415.7 241.8 414.7 244.0 414.1 246.3 C 413.5 248.6 413.0 250.0 412.8 252.3 C 412.6 254.6 412.7 257.4 412.9 260.0 C 413.1 262.6 413.6 265.7 414.1 268.0 C 414.7 270.4 415.2 272.2 416.2 274.0 C 417.2 275.7 418.5 277.0 420.1 278.3 C 421.7 279.6 423.9 280.8 425.7 281.5 C 427.5 282.2 429.0 282.6 430.7 282.6 C 432.5 282.6 434.1 282.2 436.0 281.3 C 437.9 280.4 440.1 279.1 442.1 277.3 C 444.1 275.4 446.2 273.3 448.0 270.4 C 449.8 267.5 451.5 264.0 453.1 259.9 C 454.7 255.9 456.2 251.1 457.6 246.2 C 459.0 241.3 460.4 236.3 461.6 230.6 C 462.9 224.9 464.2 218.6 465.3 212.1 C 466.4 205.7 467.5 198.1 468.5 191.9 C 469.4 185.7 470.3 179.8 471.1 175.1 C 471.8 170.4 472.5 167.0 473.1 163.8 C 473.7 160.6 474.2 158.2 474.6 156.1 C 475.0 154.0 473.6 151.6 475.6 151.1 C 477.5 150.6 484.7 151.8 486.4 152.9 C 488.1 154.1 486.0 155.8 485.7 158.0 C 485.4 160.1 485.0 162.5 484.6 165.7 C 484.1 168.8 483.6 172.2 482.9 176.9 C 482.3 181.6 481.5 187.5 480.7 193.7 C 479.8 199.9 478.9 207.6 477.8 214.2 C 476.8 220.8 475.6 227.5 474.4 233.4 C 473.1 239.3 471.8 244.5 470.4 249.8 C 468.9 255.0 467.5 260.2 465.8 264.8 C 464.0 269.4 462.2 273.8 460.0 277.6 C 457.8 281.4 455.3 284.8 452.5 287.7 C 449.8 290.6 446.8 293.1 443.6 295.0 C 440.4 297.0 436.9 298.6 433.3 299.4 C 429.6 300.2 425.5 300.2 421.7 299.7 C 417.9 299.2 413.9 297.9 410.3 296.3 C 406.6 294.7 403.0 292.6 399.8 290.0 C 396.6 287.5 393.7 284.2 391.0 280.8 C 388.4 277.5 386.1 273.6 384.1 269.8 C 382.2 265.9 380.4 261.8 379.2 257.7 C 378.0 253.6 377.3 249.2 376.9 245.3 C 376.4 241.3 376.5 237.6 376.6 233.8 C 376.6 230.0 376.8 226.7 377.2 222.4 C 377.5 218.1 378.0 213.0 378.6 207.8 C 379.3 202.7 380.2 196.7 381.1 191.5 C 382.0 186.4 383.0 181.5 384.2 177.0 C 385.5 172.6 387.0 168.6 388.6 164.9 C 390.2 161.2 392.2 157.6 393.6 154.8 C 395.0 151.9 392.6 148.4 397.2 147.9 C 401.7 147.5 416.7 150.1 420.8 152.1 Z M 488.9 151.8 C 493.0 153.9 489.5 157.1 489.9 160.8 C 490.3 164.5 490.9 169.3 491.2 173.7 C 491.6 178.2 491.9 182.8 491.8 187.5 C 491.8 192.3 491.5 197.2 491.1 202.3 C 490.7 207.4 490.1 213.2 489.5 218.1 C 489.0 223.1 488.5 228.0 487.9 232.1 C 487.3 236.1 486.6 239.6 485.9 242.5 C 485.3 245.4 484.5 247.4 483.9 249.5 C 483.4 251.6 482.9 252.9 482.7 255.0 C 482.5 257.1 482.6 259.6 482.7 261.9 C 482.9 264.2 483.3 267.0 483.6 268.9 C 484.0 270.9 484.3 272.4 484.9 273.7 C 485.6 275.0 486.3 275.9 487.4 276.8 C 488.6 277.8 490.3 278.7 491.8 279.2 C 493.3 279.8 494.8 280.2 496.5 280.1 C 498.1 280.1 499.8 279.8 501.8 278.9 C 503.7 278.1 506.0 276.8 508.1 275.3 C 510.2 273.9 512.2 272.4 514.4 270.1 C 516.6 267.9 518.9 265.0 521.1 261.9 C 523.4 258.8 525.9 254.5 527.8 251.6 C 529.7 248.6 530.5 244.7 532.5 244.1 C 534.4 243.5 539.0 245.9 539.5 247.9 C 540.0 249.9 537.3 252.7 535.7 256.0 C 534.1 259.2 532.1 263.8 530.0 267.5 C 528.0 271.1 525.8 274.9 523.6 277.9 C 521.3 280.9 519.0 283.3 516.5 285.6 C 514.0 287.9 511.3 290.0 508.5 291.7 C 505.7 293.4 502.7 295.0 499.5 295.9 C 496.3 296.7 492.9 297.1 489.5 297.1 C 486.1 297.0 482.5 296.4 479.1 295.3 C 475.7 294.2 472.1 292.5 469.1 290.3 C 466.0 288.1 463.2 285.1 460.7 282.1 C 458.2 279.0 456.0 275.5 454.1 272.0 C 452.2 268.5 450.5 264.7 449.3 261.0 C 448.0 257.3 447.2 253.3 446.7 249.7 C 446.1 246.0 446.0 242.6 445.9 239.0 C 445.8 235.4 445.9 232.2 446.1 227.9 C 446.3 223.7 446.7 218.7 447.2 213.6 C 447.7 208.6 448.5 202.6 449.3 197.4 C 450.1 192.2 451.0 187.2 452.2 182.5 C 453.4 177.7 454.9 173.2 456.5 168.8 C 458.0 164.5 460.1 160.0 461.5 156.6 C 463.0 153.2 460.6 149.0 465.1 148.2 C 469.7 147.4 484.7 149.7 488.9 151.8 Z"/>
<path id="lt-t" fill="#1a1a1a" d="M 571.5 100.7 C 573.4 101.8 571.9 103.6 572.2 105.7 C 572.5 107.7 572.9 110.1 573.2 113.1 C 573.5 116.1 573.7 119.4 573.9 123.6 C 574.1 127.8 574.1 132.8 574.2 138.2 C 574.2 143.5 574.3 149.9 574.2 155.6 C 574.2 161.2 574.1 166.9 573.9 172.3 C 573.6 177.7 573.3 182.8 572.9 187.9 C 572.5 193.1 572.0 198.4 571.5 203.3 C 571.0 208.1 570.5 212.9 569.9 217.2 C 569.2 221.4 568.4 225.3 567.7 228.7 C 567.0 232.1 566.0 234.8 565.4 237.5 C 564.8 240.2 564.3 242.4 564.0 244.7 C 563.7 247.0 563.6 249.4 563.5 251.4 C 563.5 253.5 563.5 255.5 563.6 257.2 C 563.8 258.9 563.9 260.2 564.4 261.7 C 564.8 263.2 565.5 264.7 566.3 266.1 C 567.2 267.6 568.4 269.1 569.5 270.4 C 570.7 271.7 571.7 272.8 573.1 273.9 C 574.5 274.9 576.2 275.8 578.1 276.6 C 580.1 277.4 582.8 278.1 584.7 278.6 C 586.7 279.1 588.5 279.5 589.8 279.6 C 591.2 279.7 591.7 279.8 592.7 279.5 C 593.7 279.2 594.8 278.4 595.7 277.8 C 596.6 277.3 596.8 275.5 598.1 276.2 C 599.5 276.9 603.2 280.4 603.9 281.8 C 604.5 283.2 602.9 283.4 602.0 284.5 C 601.1 285.7 600.1 287.5 598.5 288.8 C 596.8 290.1 594.6 291.6 592.2 292.4 C 589.7 293.2 586.9 293.5 583.9 293.8 C 581.0 294.0 577.7 294.2 574.5 293.9 C 571.4 293.6 568.0 293.1 564.9 292.1 C 561.8 291.1 558.9 289.6 556.1 287.9 C 553.3 286.3 550.7 284.2 548.3 282.0 C 545.8 279.7 543.5 277.1 541.6 274.3 C 539.7 271.5 538.1 268.3 536.8 265.2 C 535.5 262.1 534.6 258.8 533.8 255.5 C 533.0 252.2 532.4 248.8 532.0 245.3 C 531.6 241.8 531.3 238.2 531.2 234.6 C 531.1 231.1 531.3 227.7 531.4 224.1 C 531.6 220.4 531.8 217.0 532.1 212.8 C 532.5 208.7 532.8 204.1 533.4 199.2 C 533.9 194.3 534.5 188.9 535.3 183.6 C 536.1 178.4 537.0 173.1 538.1 167.7 C 539.3 162.2 540.9 156.5 542.4 151.0 C 544.0 145.4 546.0 139.3 547.6 134.2 C 549.2 129.1 550.8 124.3 552.1 120.4 C 553.5 116.5 554.6 113.5 555.6 110.7 C 556.7 108.0 557.7 105.7 558.6 103.8 C 559.4 101.9 558.4 99.8 560.5 99.3 C 562.7 98.8 569.5 99.7 571.5 100.7 Z"/>
<path id="lt-F" fill="#1a1a1a" d="M 674.9 103.8 C 679.7 107.1 675.9 113.4 676.2 119.8 C 676.6 126.3 677.1 134.4 676.8 142.7 C 676.5 151.0 675.4 160.4 674.4 169.5 C 673.4 178.7 672.0 188.6 670.8 197.7 C 669.6 206.8 668.4 216.0 667.3 224.3 C 666.1 232.6 664.9 241.1 663.9 247.5 C 662.8 253.9 662.0 258.4 661.2 262.7 C 660.4 267.1 659.7 270.1 658.9 273.6 C 658.2 277.1 657.3 280.8 656.7 283.7 C 656.0 286.5 660.6 289.7 655.0 290.7 C 649.4 291.6 628.5 290.8 623.0 289.3 C 617.5 287.8 622.3 284.9 622.0 281.7 C 621.6 278.6 621.2 274.3 621.1 270.4 C 620.9 266.5 621.0 262.9 621.2 258.3 C 621.4 253.6 621.6 249.1 622.1 242.5 C 622.6 236.0 623.4 227.5 624.2 219.2 C 625.1 210.8 626.1 201.5 627.2 192.3 C 628.3 183.1 629.4 173.1 630.7 164.0 C 632.1 154.8 633.4 145.4 635.2 137.3 C 637.0 129.2 639.7 121.5 641.6 115.3 C 643.6 109.1 641.6 102.1 647.1 100.2 C 652.7 98.3 670.0 100.6 674.9 103.8 Z M 651.3 101.2 C 653.6 97.4 661.7 97.9 668.3 96.2 C 675.0 94.4 683.7 92.0 691.4 90.6 C 699.1 89.2 706.8 88.3 714.6 87.6 C 722.4 86.9 730.5 86.3 738.1 86.5 C 745.7 86.7 753.6 87.8 760.1 88.6 C 766.6 89.3 772.4 90.6 777.1 91.0 C 781.8 91.5 785.2 91.3 788.5 91.2 C 791.8 91.1 794.8 89.1 796.9 90.4 C 799.0 91.8 801.6 97.0 801.1 99.6 C 800.5 102.2 797.2 103.8 793.5 106.1 C 789.8 108.3 784.7 111.7 778.9 113.0 C 773.1 114.3 765.7 113.8 758.9 113.9 C 752.0 114.0 745.0 113.4 737.9 113.5 C 730.8 113.6 723.6 114.0 716.4 114.3 C 709.2 114.6 702.0 114.9 694.6 115.4 C 687.2 115.9 678.7 116.6 672.0 117.2 C 665.4 117.8 658.2 121.5 654.7 118.8 C 651.2 116.2 649.0 104.9 651.3 101.2 Z M 649.9 189.1 C 652.0 186.1 658.7 186.5 664.4 185.1 C 670.0 183.7 677.3 181.8 683.7 180.6 C 690.2 179.4 696.8 178.7 703.1 178.1 C 709.4 177.4 715.9 176.9 721.7 176.6 C 727.6 176.3 733.2 176.4 738.1 176.4 C 743.0 176.3 747.7 176.6 751.3 176.2 C 755.0 175.9 757.6 175.0 760.0 174.4 C 762.3 173.8 764.0 171.9 765.4 172.5 C 766.8 173.0 768.9 176.0 768.6 177.5 C 768.3 179.1 766.1 180.3 763.8 182.0 C 761.4 183.7 758.5 185.9 754.7 187.8 C 750.9 189.6 746.0 191.4 740.9 193.0 C 735.8 194.6 730.2 196.3 724.3 197.4 C 718.4 198.6 711.7 199.3 705.4 199.9 C 699.1 200.6 692.7 201.0 686.3 201.4 C 679.9 201.8 672.6 202.2 666.9 202.4 C 661.2 202.7 654.9 205.1 652.1 202.9 C 649.2 200.7 647.9 192.1 649.9 189.1 Z"/>
<path id="lt-o" fill="#1a1a1a" d="M 900.6 224.0 C 900.3 229.4 899.3 234.9 898.0 240.3 C 896.6 245.6 894.8 250.9 892.5 255.8 C 890.2 260.8 887.4 265.6 884.3 269.9 C 881.1 274.3 877.6 278.5 873.8 282.1 C 870.0 285.7 865.7 288.9 861.4 291.5 C 857.1 294.1 852.5 296.4 847.9 297.9 C 843.2 299.4 838.4 300.1 833.7 300.5 C 829.1 300.8 824.6 300.6 820.2 300.1 C 815.8 299.6 811.6 298.9 807.5 297.7 C 803.3 296.6 799.4 295.1 795.3 293.4 C 791.3 291.6 787.2 289.7 783.4 287.2 C 779.5 284.7 775.6 281.7 772.3 278.2 C 768.9 274.7 766.0 270.5 763.5 266.2 C 760.9 261.8 758.8 257.0 757.2 252.0 C 755.5 247.0 754.4 241.7 753.8 236.4 C 753.2 231.0 753.0 225.5 753.4 220.0 C 753.7 214.6 754.7 209.1 756.0 203.7 C 757.4 198.4 759.2 193.1 761.5 188.2 C 763.8 183.2 766.6 178.4 769.7 174.1 C 772.9 169.7 776.4 165.5 780.2 161.9 C 784.0 158.3 788.3 155.1 792.6 152.5 C 796.9 149.9 801.5 147.6 806.1 146.1 C 810.8 144.6 815.6 143.9 820.3 143.5 C 824.9 143.2 829.4 143.4 833.8 143.9 C 838.2 144.4 842.4 145.1 846.5 146.3 C 850.7 147.4 854.6 148.9 858.7 150.6 C 862.7 152.4 866.8 154.3 870.6 156.8 C 874.5 159.3 878.4 162.3 881.7 165.8 C 885.1 169.3 888.0 173.5 890.5 177.8 C 893.1 182.2 895.2 187.0 896.8 192.0 C 898.5 197.0 899.6 202.3 900.2 207.6 C 900.8 213.0 901.0 218.5 900.6 224.0 Z M 862.3 209.8 C 862.4 206.5 862.4 203.1 862.1 200.0 C 861.9 196.8 861.4 193.6 860.8 190.7 C 860.1 187.7 859.3 184.8 858.2 182.1 C 857.2 179.3 856.1 176.6 854.6 174.2 C 853.1 171.8 851.4 169.4 849.2 167.7 C 847.1 166.1 844.4 165.0 841.9 164.4 C 839.3 163.8 836.4 163.6 833.8 164.1 C 831.2 164.6 828.5 165.8 826.0 167.1 C 823.6 168.5 821.3 170.3 819.1 172.2 C 816.9 174.1 814.8 176.2 812.8 178.5 C 810.7 180.8 808.8 183.2 807.0 185.9 C 805.2 188.6 803.6 191.5 802.1 194.4 C 800.5 197.4 799.1 200.6 797.9 203.8 C 796.7 207.0 795.6 210.4 794.8 213.7 C 793.9 217.1 793.1 220.6 792.6 224.0 C 792.1 227.4 791.8 230.8 791.7 234.2 C 791.6 237.5 791.6 240.9 791.9 244.0 C 792.1 247.2 792.6 250.4 793.2 253.3 C 793.9 256.3 794.7 259.2 795.8 261.9 C 796.8 264.7 797.9 267.4 799.4 269.8 C 800.9 272.2 802.6 274.6 804.8 276.3 C 806.9 277.9 809.6 279.0 812.1 279.6 C 814.7 280.2 817.6 280.4 820.2 279.9 C 822.8 279.4 825.5 278.2 828.0 276.9 C 830.4 275.5 832.7 273.7 834.9 271.8 C 837.1 269.9 839.2 267.8 841.2 265.5 C 843.3 263.2 845.2 260.8 847.0 258.1 C 848.8 255.4 850.4 252.5 851.9 249.6 C 853.5 246.6 854.9 243.4 856.1 240.2 C 857.3 237.0 858.4 233.6 859.2 230.3 C 860.1 226.9 860.9 223.4 861.4 220.0 C 861.9 216.6 862.2 213.2 862.3 209.8 Z M 864.1 171.1 C 863.6 168.5 868.5 167.6 871.1 165.6 C 873.7 163.6 877.1 161.0 879.8 158.8 C 882.6 156.7 885.3 154.5 887.5 152.8 C 889.7 151.0 891.7 148.4 893.2 148.2 C 894.8 148.1 896.9 150.2 896.8 151.8 C 896.6 153.3 894.0 155.3 892.2 157.5 C 890.5 159.7 888.3 162.4 886.2 165.2 C 884.0 167.9 881.4 171.3 879.4 173.9 C 877.4 176.5 876.5 181.4 873.9 180.9 C 871.4 180.5 864.5 173.6 864.1 171.1 Z"/>
<path id="lt-c" fill="#1a1a1a" d="M 1027.2 173.1 C 1025.5 172.9 1023.1 169.9 1020.6 168.4 C 1018.2 166.8 1015.0 164.8 1012.4 163.7 C 1009.8 162.7 1007.6 162.3 1005.2 162.1 C 1002.8 161.8 1000.4 161.8 998.1 162.2 C 995.7 162.7 993.4 163.6 991.3 164.7 C 989.2 165.8 987.2 167.1 985.3 168.6 C 983.4 170.0 981.6 171.7 979.8 173.4 C 978.1 175.2 976.4 177.1 974.8 179.2 C 973.2 181.3 971.7 183.5 970.3 185.8 C 968.8 188.2 967.5 190.7 966.2 193.2 C 964.9 195.8 963.7 198.5 962.7 201.3 C 961.6 204.1 960.6 206.9 959.8 209.8 C 958.9 212.7 958.2 215.7 957.6 218.7 C 956.9 221.7 956.4 224.7 956.1 227.6 C 955.7 230.6 955.5 233.6 955.4 236.5 C 955.3 239.4 955.4 242.3 955.5 245.1 C 955.7 247.9 956.0 250.6 956.5 253.3 C 956.9 255.9 957.5 258.5 958.3 260.9 C 959.0 263.4 959.8 265.8 960.9 268.0 C 961.9 270.3 963.1 272.4 964.6 274.3 C 966.1 276.2 967.7 278.2 969.6 279.5 C 971.5 280.9 973.8 282.3 976.1 282.5 C 978.4 282.7 981.0 281.6 983.2 280.8 C 985.5 280.0 987.4 278.5 989.6 277.6 C 991.8 276.6 994.0 276.1 996.3 275.3 C 998.7 274.6 1000.9 274.1 1003.7 272.9 C 1006.6 271.7 1010.6 269.7 1013.6 268.1 C 1016.7 266.5 1019.8 263.5 1022.0 263.5 C 1024.2 263.4 1026.8 265.7 1026.9 267.9 C 1027.0 270.2 1024.5 273.7 1022.6 277.1 C 1020.7 280.5 1018.2 285.1 1015.4 288.2 C 1012.7 291.3 1009.4 293.8 1006.0 295.7 C 1002.6 297.6 998.9 299.3 995.2 299.9 C 991.5 300.4 987.4 299.7 983.8 299.1 C 980.2 298.5 976.9 297.0 973.5 296.1 C 970.0 295.2 966.7 294.8 963.3 293.8 C 959.9 292.8 956.3 291.7 953.0 290.1 C 949.6 288.4 946.3 286.4 943.2 283.9 C 940.0 281.5 936.9 278.7 934.3 275.6 C 931.6 272.4 929.1 268.8 927.0 265.1 C 924.9 261.3 923.1 257.2 921.6 253.0 C 920.2 248.7 919.1 244.2 918.3 239.7 C 917.6 235.2 917.2 230.5 917.2 225.8 C 917.2 221.2 917.6 216.4 918.3 211.8 C 919.1 207.1 920.2 202.5 921.6 198.0 C 923.1 193.5 924.9 189.1 927.0 184.9 C 929.1 180.8 931.5 176.7 934.2 173.0 C 936.9 169.3 940.0 165.8 943.2 162.7 C 946.4 159.6 949.9 156.8 953.5 154.4 C 957.1 152.0 961.0 149.9 964.8 148.4 C 968.7 146.8 972.7 145.6 976.6 144.9 C 980.5 144.2 984.5 144.1 988.3 144.2 C 992.1 144.4 995.8 145.1 999.2 146.0 C 1002.7 146.8 1006.0 147.9 1009.2 149.4 C 1012.3 150.8 1015.3 152.4 1018.1 154.7 C 1020.8 156.9 1023.5 160.4 1025.5 162.9 C 1027.6 165.5 1030.2 168.1 1030.5 169.8 C 1030.8 171.5 1028.8 173.4 1027.2 173.1 Z"/>
<path id="lt-u2" fill="#1a1a1a" d="M 1018.9 262.9 C 1019.5 260.7 1024.1 261.3 1027.0 259.5 C 1030.0 257.8 1033.7 256.2 1036.8 252.5 C 1039.9 248.7 1042.8 243.0 1045.7 237.3 C 1048.5 231.6 1051.5 224.7 1053.8 218.1 C 1056.2 211.5 1058.0 204.4 1059.7 197.8 C 1061.4 191.2 1062.8 184.2 1064.2 178.5 C 1065.6 172.7 1066.9 167.5 1067.9 163.2 C 1068.9 159.0 1067.6 154.2 1070.3 153.1 C 1072.9 152.0 1082.0 154.6 1083.7 156.9 C 1085.4 159.2 1081.8 162.7 1080.5 166.8 C 1079.2 170.9 1077.4 175.8 1075.8 181.5 C 1074.2 187.2 1072.6 194.1 1070.7 200.8 C 1068.7 207.5 1066.7 215.0 1064.2 221.9 C 1061.6 228.8 1058.6 235.9 1055.5 242.2 C 1052.3 248.5 1049.0 255.1 1045.2 259.5 C 1041.4 264.0 1036.4 266.7 1032.7 269.0 C 1029.0 271.2 1025.4 274.1 1023.1 273.1 C 1020.8 272.1 1018.2 265.2 1018.9 262.9 Z M 1086.8 152.1 C 1090.9 154.0 1087.5 156.6 1087.9 159.7 C 1088.3 162.8 1088.9 166.7 1089.2 170.6 C 1089.6 174.5 1089.9 178.5 1089.8 183.0 C 1089.7 187.4 1089.2 192.3 1088.8 197.3 C 1088.3 202.4 1087.5 208.2 1086.9 213.3 C 1086.2 218.3 1085.6 223.4 1084.8 227.6 C 1084.1 231.9 1083.2 235.6 1082.4 238.7 C 1081.6 241.8 1080.6 244.0 1080.0 246.3 C 1079.4 248.5 1078.9 249.8 1078.7 252.0 C 1078.6 254.2 1078.7 256.9 1079.0 259.6 C 1079.3 262.2 1080.0 265.3 1080.6 267.7 C 1081.3 270.1 1082.0 272.1 1083.1 273.8 C 1084.2 275.6 1085.6 277.0 1087.2 278.3 C 1088.8 279.6 1091.0 280.8 1092.7 281.5 C 1094.5 282.2 1096.0 282.6 1097.7 282.6 C 1099.4 282.6 1101.1 282.2 1103.0 281.3 C 1104.9 280.4 1107.1 279.1 1109.1 277.3 C 1111.1 275.4 1113.2 273.3 1115.0 270.4 C 1116.8 267.5 1118.6 264.0 1120.2 259.9 C 1121.8 255.9 1123.3 251.0 1124.7 246.2 C 1126.1 241.3 1127.4 236.3 1128.6 230.7 C 1129.9 225.0 1131.0 218.7 1132.0 212.2 C 1133.0 205.8 1133.9 198.2 1134.7 192.0 C 1135.6 185.9 1136.3 179.9 1137.1 175.2 C 1137.8 170.5 1138.5 167.0 1139.0 163.8 C 1139.6 160.6 1140.1 158.2 1140.6 156.1 C 1141.0 153.9 1139.6 151.6 1141.6 151.0 C 1143.6 150.5 1150.7 151.8 1152.4 153.0 C 1154.1 154.1 1152.0 155.9 1151.7 158.0 C 1151.3 160.1 1151.0 162.5 1150.5 165.7 C 1150.1 168.8 1149.5 172.2 1148.9 176.8 C 1148.4 181.5 1147.7 187.4 1147.0 193.6 C 1146.2 199.8 1145.5 207.5 1144.5 214.1 C 1143.6 220.7 1142.5 227.4 1141.4 233.3 C 1140.2 239.3 1138.9 244.5 1137.5 249.8 C 1136.0 255.0 1134.5 260.2 1132.8 264.8 C 1131.0 269.5 1129.2 273.8 1127.0 277.6 C 1124.8 281.4 1122.3 284.8 1119.5 287.7 C 1116.8 290.6 1113.8 293.1 1110.6 295.0 C 1107.4 297.0 1103.9 298.6 1100.3 299.4 C 1096.6 300.2 1092.6 300.2 1088.7 299.7 C 1084.9 299.2 1081.0 297.9 1077.3 296.3 C 1073.7 294.7 1070.1 292.7 1066.9 290.2 C 1063.7 287.6 1060.7 284.5 1058.0 281.2 C 1055.2 277.9 1052.7 274.1 1050.6 270.2 C 1048.5 266.4 1046.6 262.1 1045.3 258.0 C 1044.0 253.8 1043.2 249.3 1042.8 245.3 C 1042.3 241.3 1042.5 237.6 1042.5 233.7 C 1042.6 229.9 1042.8 226.7 1043.2 222.4 C 1043.5 218.0 1044.0 213.0 1044.6 207.8 C 1045.3 202.7 1046.2 196.7 1047.1 191.5 C 1048.0 186.4 1049.0 181.5 1050.2 177.0 C 1051.5 172.6 1053.0 168.6 1054.6 164.9 C 1056.2 161.2 1058.2 157.6 1059.6 154.8 C 1061.0 151.9 1058.6 148.4 1063.2 147.9 C 1067.7 147.5 1082.7 150.1 1086.8 152.1 Z M 1154.9 151.8 C 1159.0 153.9 1155.5 157.1 1155.9 160.8 C 1156.3 164.5 1156.9 169.3 1157.2 173.7 C 1157.6 178.2 1157.9 182.8 1157.8 187.5 C 1157.8 192.3 1157.5 197.2 1157.1 202.3 C 1156.7 207.4 1156.1 213.2 1155.5 218.1 C 1155.0 223.1 1154.5 228.0 1153.9 232.1 C 1153.3 236.1 1152.6 239.6 1151.9 242.5 C 1151.3 245.4 1150.5 247.4 1149.9 249.5 C 1149.4 251.6 1148.9 252.9 1148.7 255.0 C 1148.5 257.1 1148.6 259.6 1148.7 261.9 C 1148.9 264.2 1149.3 267.0 1149.6 268.9 C 1150.0 270.9 1150.2 272.3 1150.8 273.6 C 1151.5 274.9 1152.1 275.7 1153.3 276.6 C 1154.5 277.5 1156.4 278.3 1158.0 278.9 C 1159.7 279.5 1161.3 280.0 1163.0 280.1 C 1164.6 280.2 1166.1 280.1 1167.9 279.6 C 1169.7 279.1 1171.8 278.1 1173.7 277.1 C 1175.6 276.2 1177.5 275.1 1179.4 273.8 C 1181.3 272.5 1183.2 271.0 1185.1 269.3 C 1186.9 267.7 1188.9 265.5 1190.4 263.9 C 1192.0 262.3 1192.7 259.8 1194.3 259.8 C 1195.8 259.9 1199.3 262.7 1199.7 264.2 C 1200.2 265.7 1198.0 267.0 1196.7 268.9 C 1195.4 270.8 1193.7 273.5 1192.1 275.7 C 1190.4 277.9 1188.5 280.2 1186.6 282.2 C 1184.7 284.2 1182.7 285.9 1180.5 287.6 C 1178.4 289.3 1176.0 291.2 1173.5 292.6 C 1170.9 294.0 1168.0 295.2 1165.0 295.9 C 1162.0 296.6 1158.8 296.9 1155.5 296.8 C 1152.2 296.7 1148.8 296.3 1145.4 295.3 C 1142.0 294.2 1138.3 292.6 1135.2 290.4 C 1132.0 288.2 1129.2 285.1 1126.7 282.1 C 1124.1 279.0 1122.0 275.5 1120.1 272.0 C 1118.2 268.5 1116.5 264.7 1115.3 261.0 C 1114.0 257.3 1113.2 253.3 1112.7 249.7 C 1112.1 246.0 1112.0 242.6 1111.9 239.0 C 1111.8 235.4 1111.9 232.2 1112.1 227.9 C 1112.3 223.7 1112.7 218.7 1113.2 213.6 C 1113.7 208.6 1114.5 202.6 1115.3 197.4 C 1116.1 192.2 1117.0 187.2 1118.2 182.5 C 1119.4 177.7 1120.9 173.2 1122.5 168.8 C 1124.0 164.5 1126.1 160.0 1127.5 156.6 C 1129.0 153.2 1126.6 149.0 1131.1 148.2 C 1135.7 147.4 1150.7 149.7 1154.9 151.8 Z"/>
<path id="lt-s" fill="#1a1a1a" d="M 1278.0 166.0 C 1275.9 166.7 1274.3 163.8 1271.9 162.5 C 1269.5 161.2 1266.3 159.2 1263.7 158.2 C 1261.2 157.1 1258.9 156.5 1256.7 156.2 C 1254.5 155.9 1252.6 156.2 1250.4 156.5 C 1248.1 156.9 1245.4 157.4 1243.4 158.1 C 1241.3 158.8 1239.7 159.6 1238.1 160.8 C 1236.4 161.9 1234.9 163.3 1233.5 164.8 C 1232.1 166.3 1230.4 168.5 1229.6 169.9 C 1228.8 171.3 1228.7 172.1 1228.8 173.2 C 1228.9 174.4 1229.5 175.1 1230.4 176.7 C 1231.3 178.2 1232.8 180.7 1234.1 182.5 C 1235.5 184.4 1236.9 186.3 1238.7 187.9 C 1240.4 189.5 1242.1 190.6 1244.6 192.3 C 1247.1 194.1 1250.6 195.9 1253.7 198.1 C 1256.8 200.4 1260.4 203.2 1263.2 205.9 C 1266.0 208.7 1268.3 211.7 1270.5 214.6 C 1272.7 217.6 1274.6 220.6 1276.2 223.7 C 1277.8 226.7 1279.0 229.9 1280.2 233.1 C 1281.3 236.3 1282.3 239.2 1283.0 242.9 C 1283.7 246.6 1284.8 251.0 1284.3 255.4 C 1283.9 259.8 1282.6 265.0 1280.4 269.3 C 1278.2 273.6 1274.8 277.5 1271.2 281.3 C 1267.6 285.1 1263.5 289.2 1258.9 292.1 C 1254.2 294.9 1248.6 298.1 1243.4 298.4 C 1238.2 298.7 1232.5 296.2 1227.8 294.1 C 1223.1 291.9 1218.9 287.9 1215.5 285.5 C 1212.1 283.0 1207.9 281.8 1207.4 279.3 C 1207.0 276.8 1210.2 271.5 1212.6 270.7 C 1214.9 269.9 1218.1 273.3 1221.6 274.7 C 1225.0 276.1 1230.2 278.5 1233.4 279.3 C 1236.6 280.2 1238.6 280.3 1240.6 279.6 C 1242.6 278.9 1243.6 277.2 1245.6 274.9 C 1247.5 272.6 1250.7 268.7 1252.3 266.0 C 1254.0 263.3 1255.3 260.2 1255.6 258.7 C 1255.9 257.1 1254.9 257.6 1254.3 256.8 C 1253.6 256.0 1252.6 255.3 1251.5 254.0 C 1250.5 252.6 1249.1 250.5 1247.8 248.9 C 1246.6 247.3 1245.5 245.7 1244.1 244.1 C 1242.7 242.5 1241.2 241.1 1239.6 239.4 C 1238.1 237.7 1236.7 236.0 1234.8 234.1 C 1233.0 232.1 1231.0 230.2 1228.5 227.7 C 1226.0 225.2 1222.7 222.4 1219.8 219.1 C 1216.9 215.9 1213.7 212.0 1211.3 208.1 C 1209.0 204.2 1207.2 199.9 1205.7 195.7 C 1204.3 191.5 1203.0 187.2 1202.6 182.7 C 1202.2 178.2 1202.1 173.1 1203.2 168.8 C 1204.3 164.4 1206.7 160.1 1209.2 156.5 C 1211.6 153.0 1214.8 150.0 1217.9 147.5 C 1221.1 144.9 1224.4 142.8 1227.9 141.2 C 1231.4 139.7 1235.2 138.7 1238.9 138.1 C 1242.6 137.5 1246.5 137.4 1250.2 137.7 C 1254.0 138.0 1257.8 138.5 1261.3 139.8 C 1264.8 141.1 1268.2 143.5 1271.2 145.7 C 1274.1 147.9 1276.8 150.9 1279.0 153.0 C 1281.1 155.0 1284.2 155.9 1284.0 158.0 C 1283.9 160.2 1280.0 165.2 1278.0 166.0 Z"/>
<path id="lt-tbar" fill="#0b7a6a" d="M 528.8 152.2 C 529.9 150.2 534.0 149.4 537.4 147.8 C 540.9 146.2 545.4 144.1 549.3 142.7 C 553.3 141.3 557.3 140.3 561.3 139.4 C 565.4 138.4 569.5 137.6 573.7 137.1 C 577.9 136.6 582.4 136.4 586.5 136.2 C 590.7 135.9 594.7 136.0 598.5 135.7 C 602.4 135.4 606.4 134.8 609.7 134.4 C 612.9 134.0 616.3 132.4 618.0 133.2 C 619.7 133.9 620.9 137.2 620.0 138.8 C 619.1 140.5 615.5 141.5 612.4 143.1 C 609.4 144.7 605.4 146.8 601.5 148.3 C 597.6 149.8 593.3 151.0 589.1 152.1 C 584.9 153.2 580.5 154.2 576.3 154.9 C 572.2 155.6 568.1 156.0 564.2 156.4 C 560.2 156.8 556.6 156.9 552.7 157.3 C 548.7 157.7 544.1 158.3 540.6 158.7 C 537.0 159.1 533.1 160.9 531.2 159.8 C 529.2 158.7 527.8 154.2 528.8 152.2 Z"/>
</svg>